<mxfile host="app.diagrams.net" agent="Mozilla/5.0 (Windows NT 10.0; Win64; x64; rv:132.0) Gecko/20100101 Firefox/132.0" version="24.7.14">
  <diagram id="yPxyJZ8AM_hMuL3Unpa9" name="complex gitflow">
    <mxGraphModel dx="1434" dy="754" grid="1" gridSize="10" guides="1" tooltips="1" connect="1" arrows="1" fold="1" page="1" pageScale="1" pageWidth="1100" pageHeight="850" math="0" shadow="0">
      <root>
        <mxCell id="0" />
        <mxCell id="1" parent="0" />
        <mxCell id="EsOcuhII5AbmJ0I-Kpl1-1" value="Users" style="rounded=1;whiteSpace=wrap;html=1;" vertex="1" parent="1">
          <mxGeometry x="490" y="330" width="120" height="60" as="geometry" />
        </mxCell>
        <mxCell id="EsOcuhII5AbmJ0I-Kpl1-2" value="Models Bulletin Board" style="text;strokeColor=none;align=center;fillColor=none;html=1;verticalAlign=middle;whiteSpace=wrap;rounded=0;" vertex="1" parent="1">
          <mxGeometry x="390" y="10" width="320" height="30" as="geometry" />
        </mxCell>
        <mxCell id="EsOcuhII5AbmJ0I-Kpl1-9" style="edgeStyle=orthogonalEdgeStyle;rounded=0;orthogonalLoop=1;jettySize=auto;html=1;exitX=1;exitY=0.5;exitDx=0;exitDy=0;entryX=0.5;entryY=0;entryDx=0;entryDy=0;" edge="1" parent="1" source="EsOcuhII5AbmJ0I-Kpl1-3" target="EsOcuhII5AbmJ0I-Kpl1-6">
          <mxGeometry relative="1" as="geometry" />
        </mxCell>
        <mxCell id="EsOcuhII5AbmJ0I-Kpl1-12" style="edgeStyle=orthogonalEdgeStyle;rounded=0;orthogonalLoop=1;jettySize=auto;html=1;exitX=0.5;exitY=1;exitDx=0;exitDy=0;entryX=0.5;entryY=0;entryDx=0;entryDy=0;" edge="1" parent="1" source="EsOcuhII5AbmJ0I-Kpl1-3" target="EsOcuhII5AbmJ0I-Kpl1-1">
          <mxGeometry relative="1" as="geometry" />
        </mxCell>
        <mxCell id="EsOcuhII5AbmJ0I-Kpl1-3" value="Board" style="rounded=1;whiteSpace=wrap;html=1;" vertex="1" parent="1">
          <mxGeometry x="490" y="140" width="120" height="60" as="geometry" />
        </mxCell>
        <mxCell id="EsOcuhII5AbmJ0I-Kpl1-8" style="edgeStyle=orthogonalEdgeStyle;rounded=0;orthogonalLoop=1;jettySize=auto;html=1;exitX=1;exitY=0.5;exitDx=0;exitDy=0;entryX=0;entryY=0.5;entryDx=0;entryDy=0;" edge="1" parent="1" source="EsOcuhII5AbmJ0I-Kpl1-4" target="EsOcuhII5AbmJ0I-Kpl1-1">
          <mxGeometry relative="1" as="geometry" />
        </mxCell>
        <mxCell id="EsOcuhII5AbmJ0I-Kpl1-4" value="Responses" style="rounded=1;whiteSpace=wrap;html=1;" vertex="1" parent="1">
          <mxGeometry x="290" y="330" width="120" height="60" as="geometry" />
        </mxCell>
        <mxCell id="EsOcuhII5AbmJ0I-Kpl1-10" style="edgeStyle=orthogonalEdgeStyle;rounded=0;orthogonalLoop=1;jettySize=auto;html=1;exitX=1;exitY=0.5;exitDx=0;exitDy=0;entryX=0.5;entryY=1;entryDx=0;entryDy=0;" edge="1" parent="1" source="EsOcuhII5AbmJ0I-Kpl1-5" target="EsOcuhII5AbmJ0I-Kpl1-6">
          <mxGeometry relative="1" as="geometry" />
        </mxCell>
        <mxCell id="EsOcuhII5AbmJ0I-Kpl1-5" value="Categories" style="rounded=1;whiteSpace=wrap;html=1;" vertex="1" parent="1">
          <mxGeometry x="490" y="490" width="120" height="60" as="geometry" />
        </mxCell>
        <mxCell id="EsOcuhII5AbmJ0I-Kpl1-6" value="BoardsCategories" style="rounded=1;whiteSpace=wrap;html=1;" vertex="1" parent="1">
          <mxGeometry x="680" y="330" width="120" height="60" as="geometry" />
        </mxCell>
        <mxCell id="EsOcuhII5AbmJ0I-Kpl1-16" style="edgeStyle=orthogonalEdgeStyle;rounded=0;orthogonalLoop=1;jettySize=auto;html=1;exitX=0.5;exitY=1;exitDx=0;exitDy=0;entryX=0.5;entryY=0;entryDx=0;entryDy=0;" edge="1" parent="1" source="EsOcuhII5AbmJ0I-Kpl1-11" target="EsOcuhII5AbmJ0I-Kpl1-1">
          <mxGeometry relative="1" as="geometry" />
        </mxCell>
        <mxCell id="EsOcuhII5AbmJ0I-Kpl1-11" value="News" style="rounded=1;whiteSpace=wrap;html=1;" vertex="1" parent="1">
          <mxGeometry x="290" y="140" width="120" height="60" as="geometry" />
        </mxCell>
      </root>
    </mxGraphModel>
  </diagram>
</mxfile>
